<?xml version="1.0" encoding="UTF-8"?>
<svg width="192" height="64" viewBox="0 0 192 64" fill="none" xmlns="http://www.w3.org/2000/svg">
  <!-- Barcode lines with varying widths -->
  <rect x="10" y="8" width="2" height="48" fill="white"/>
  <rect x="16" y="8" width="4" height="48" fill="white"/>
  <rect x="24" y="8" width="1" height="48" fill="white"/>
  <rect x="30" y="8" width="3" height="48" fill="white"/>
  <rect x="38" y="8" width="2" height="48" fill="white"/>
  <rect x="44" y="8" width="4" height="48" fill="white"/>
  <rect x="52" y="8" width="1" height="48" fill="white"/>
  <rect x="58" y="8" width="3" height="48" fill="white"/>
  <rect x="66" y="8" width="2" height="48" fill="white"/>
  <rect x="72" y="8" width="4" height="48" fill="white"/>
  <rect x="80" y="8" width="1" height="48" fill="white"/>
  <rect x="86" y="8" width="3" height="48" fill="white"/>
  <rect x="94" y="8" width="2" height="48" fill="white"/>
  <rect x="100" y="8" width="4" height="48" fill="white"/>
  <rect x="108" y="8" width="1" height="48" fill="white"/>
  <rect x="114" y="8" width="3" height="48" fill="white"/>
  <rect x="122" y="8" width="2" height="48" fill="white"/>
  <rect x="128" y="8" width="4" height="48" fill="white"/>
  <rect x="136" y="8" width="1" height="48" fill="white"/>
  <rect x="142" y="8" width="3" height="48" fill="white"/>
  <rect x="150" y="8" width="2" height="48" fill="white"/>
  <rect x="156" y="8" width="4" height="48" fill="white"/>
  <rect x="164" y="8" width="1" height="48" fill="white"/>
  <rect x="170" y="8" width="3" height="48" fill="white"/>
  <rect x="178" y="8" width="2" height="48" fill="white"/>
  
  <!-- Optional: Add numbers below -->
  <text x="96" y="62" fill="white" font-family="sans-serif" font-size="8" text-anchor="middle">
    FEEL GOOD
  </text>
</svg> 